<svg xmlns="http://www.w3.org/2000/svg"  viewBox="0 0 48 48" width="96px" height="96px" baseProfile="basic"><path fill="#5059c9" d="M47.496,10.074c-0.508-0.249-0.727,0.226-1.025,0.467c-0.102,0.078-0.188,0.179-0.274,0.272	c-0.743,0.794-1.611,1.315-2.746,1.253c-1.658-0.093-3.074,0.428-4.326,1.696c-0.266-1.564-1.15-2.498-2.495-3.097	c-0.704-0.311-1.416-0.623-1.909-1.3c-0.344-0.482-0.438-1.019-0.61-1.548c-0.11-0.319-0.219-0.646-0.587-0.7	c-0.399-0.062-0.555,0.272-0.712,0.553c-0.626,1.144-0.868,2.405-0.845,3.681c0.055,2.871,1.267,5.159,3.676,6.785	c0.274,0.187,0.344,0.373,0.258,0.646c-0.164,0.56-0.36,1.105-0.532,1.665c-0.11,0.358-0.274,0.436-0.657,0.28	c-1.322-0.552-2.464-1.369-3.473-2.358c-1.713-1.657-3.262-3.486-5.194-4.918c-0.454-0.335-0.907-0.646-1.377-0.942	c-1.971-1.914,0.258-3.486,0.774-3.673c0.54-0.195,0.188-0.864-1.557-0.856c-1.744,0.008-3.34,0.591-5.374,1.369	c-0.297,0.117-0.61,0.202-0.931,0.272c-1.846-0.35-3.763-0.428-5.765-0.202c-3.77,0.42-6.782,2.202-8.996,5.245	c-2.66,3.657-3.285,7.812-2.519,12.147c0.806,4.568,3.137,8.349,6.719,11.306c3.716,3.066,7.994,4.568,12.876,4.28	c2.965-0.171,6.266-0.568,9.989-3.719c0.939,0.467,1.924,0.654,3.559,0.794c1.259,0.117,2.472-0.062,3.411-0.257	c1.471-0.311,1.369-1.673,0.837-1.922C34,36,33.471,35.441,33.471,35.441c2.19-2.591,5.491-5.284,6.782-14.007	c0.102-0.692,0.016-1.128,0-1.689c-0.008-0.342,0.07-0.475,0.462-0.514c1.079-0.125,2.128-0.42,3.09-0.949	c2.793-1.525,3.919-4.031,4.185-7.034C48.028,10.79,47.981,10.315,47.496,10.074z"/><path d="M32.83,26.18c-0.28-0.77-0.66-1.4-1-1.91l-0.14-0.2c-0.35-0.55-0.57-0.88-1.33-1.75l-0.1-0.11	c-0.78-0.76-1.4-1.36-2.27-1.71c-0.6-0.24-1.14-0.36-1.66-0.36c-0.56,0-1.06,0.14-1.6,0.46c-0.06,0.04-0.51,0.42-0.67,0.76	c-0.2,0.38-0.24,0.79-0.11,1.18c0.1,0.29,0.28,0.55,0.52,0.73c-0.19,0.27-0.31,0.61-0.31,0.96c0,0.9,0.71,1.61,1.61,1.61	c0.26,0,0.5-0.06,0.72-0.16c0.01,0.08,0.02,0.16,0.03,0.24c0.22,1.07,0.8,1.54,1.3,1.96L27.96,28c0.55,0.46,1.37,0.74,2.14,0.74	h0.14c0.55-0.03,1.06-0.21,1.53-0.4C32.71,27.94,33.13,27.08,32.83,26.18z M29.79,37.48c-0.47-0.29-0.99-0.7-1.66-1.26	c-2.01-1.7-3.54-3.8-4.77-5.62L22.95,30c-1.22-1.83-2.49-3.72-4.12-5.34c-3.26-3.23-7.12-5.19-11.5-5.83	c-0.45-0.06-0.93-0.1-1.41-0.1c-0.65,0-1.31,0.07-1.97,0.19c-1.28,0.23-1.84,0.93-1.77,2.21c0.15,3.27,1.06,6.43,2.72,9.4	c1.6,2.89,3.88,5.18,7.03,7.03c0.06,0.03,1.51,0.75,2.99,0.75c0.69,0,1.28-0.16,1.77-0.46c0.59-0.36,0.8-0.83,0.87-1.15	c0.1-0.49-0.01-0.99-0.33-1.45c-0.32-0.5-0.49-0.79-0.62-1.22c-0.01-0.05-0.03-0.1-0.04-0.14c0.67,0.25,2.28,1.1,5.97,4	c1.29,1.02,3.04,1.53,5.2,1.53c0.42,0,0.86-0.02,1.29-0.06c0.29-0.21,0.57-0.44,0.86-0.68c0.08,0.04,0.17,0.08,0.26,0.12	c0.05-0.08,0.08-0.16,0.1-0.25C30.34,38.14,30.16,37.71,29.79,37.48z" opacity=".05"/><path d="M27.742,38.924c-2.05,0-3.695-0.479-4.892-1.425c-4.662-3.665-6.184-4.212-6.677-4.212l-0.117,0.021	c-0.028,0.026-0.103,0.263,0.074,0.865c0.152,0.485,0.342,0.822,0.683,1.347c0.241,0.354,0.332,0.727,0.257,1.073	c-0.049,0.231-0.201,0.563-0.642,0.832c-0.408,0.253-0.916,0.382-1.507,0.382c-1.364,0-2.758-0.688-2.771-0.695	c-3.043-1.791-5.263-4.016-6.815-6.819c-1.615-2.905-2.511-5.995-2.659-9.183c-0.052-1.019,0.343-1.512,1.363-1.698	c0.633-0.117,1.267-0.176,1.885-0.176c0.454,0,0.903,0.032,1.336,0.096c4.267,0.623,8.04,2.537,11.216,5.688	c1.599,1.583,2.852,3.451,4.062,5.257l0.404,0.601c1.254,1.857,2.813,3.991,4.867,5.726c0.69,0.58,1.22,1.001,1.723,1.31	c0.182,0.112,0.272,0.327,0.227,0.535c-0.047,0.208-0.221,0.364-0.433,0.388C28.785,38.894,28.252,38.924,27.742,38.924z M30.096,28.241c-0.647,0-1.358-0.246-1.812-0.626l-0.141-0.117c-0.486-0.402-0.945-0.781-1.131-1.683	c-0.092-0.45-0.031-1.069,0.032-1.376c0.099-0.461,0.024-0.696-0.307-0.969c-0.109-0.091-0.238-0.158-0.395-0.204	c0.095,0.054,0.178,0.121,0.249,0.201c0.183,0.181,0.299,0.466,0.299,0.762c0,0.615-0.501,1.115-1.117,1.115	c-0.623,0-1.11-0.49-1.11-1.115c0-0.499,0.329-0.921,0.782-1.063c-0.198-0.039-0.37-0.118-0.507-0.19	c-0.239-0.118-0.431-0.336-0.515-0.592c-0.086-0.258-0.06-0.533,0.075-0.795c0.107-0.215,0.452-0.535,0.528-0.592	c0.425-0.247,0.844-0.354,1.298-0.354c0.457,0,0.94,0.105,1.479,0.32c0.78,0.318,1.337,0.862,2.108,1.613	c0.01,0.01,0.077,0.077,0.087,0.087c0.722,0.833,0.919,1.135,1.277,1.682l0.131,0.199c0.325,0.488,0.692,1.086,0.945,1.806	c0.223,0.647-0.075,1.232-0.777,1.529c-0.429,0.176-0.885,0.339-1.355,0.358L30.096,28.241z" opacity=".07"/><path fill="#fff" d="M23.161,37.107c-4.177-3.284-6.203-4.365-7.04-4.319c-0.782,0.047-0.641,0.942-0.469,1.525	c0.18,0.576,0.415,0.973,0.743,1.478c0.227,0.335,0.383,0.833-0.227,1.206c-1.345,0.833-3.684-0.28-3.794-0.335	c-2.722-1.603-4.998-3.72-6.602-6.614c-1.549-2.786-2.448-5.774-2.597-8.964c-0.039-0.77,0.188-1.043,0.954-1.183	c1.009-0.187,2.049-0.226,3.059-0.078c4.263,0.623,7.893,2.529,10.936,5.548c1.737,1.72,3.051,3.774,4.404,5.782	c1.439,2.132,2.988,4.163,4.959,5.828c0.696,0.584,1.252,1.027,1.783,1.354C27.667,38.515,24.991,38.554,23.161,37.107	L23.161,37.107z M25.164,24.228c0-0.342,0.274-0.615,0.618-0.615c0.078,0,0.149,0.015,0.211,0.039	c0.086,0.031,0.164,0.078,0.227,0.148c0.11,0.109,0.172,0.265,0.172,0.428c0,0.342-0.274,0.615-0.618,0.615	S25.164,24.571,25.164,24.228L25.164,24.228z M31.382,27.419c-0.399,0.163-0.798,0.303-1.181,0.319	c-0.595,0.031-1.244-0.21-1.596-0.506c-0.548-0.459-0.939-0.716-1.103-1.517c-0.07-0.342-0.031-0.872,0.031-1.175	c0.141-0.654-0.016-1.074-0.477-1.455c-0.376-0.311-0.853-0.397-1.377-0.397c-0.196,0-0.375-0.086-0.508-0.156	c-0.219-0.109-0.399-0.381-0.227-0.716c0.055-0.109,0.321-0.373,0.383-0.42c0.712-0.405,1.533-0.272,2.292,0.031	c0.704,0.288,1.236,0.817,2.003,1.564c0.782,0.903,0.923,1.152,1.369,1.829c0.352,0.529,0.673,1.074,0.892,1.696	C32.016,26.905,31.844,27.224,31.382,27.419L31.382,27.419z"/></svg>