<svg xmlns="http://www.w3.org/2000/svg"  viewBox="0 0 50 50" width="100px" height="100px"><path d="M 5 5 L 5 45 L 45 45 L 45 5 L 5 5 z M 7 7 L 43 7 L 43 43 L 7 43 L 7 7 z M 11.806641 11.064453 C 11.484187 11.071297 11.172781 11.232875 10.988281 11.515625 C 10.742281 11.890625 10.775312 12.382703 11.070312 12.720703 C 16.263312 18.654703 12.157234 27.684437 12.115234 27.773438 C 11.922234 28.189438 12.035625 28.683656 12.390625 28.972656 C 12.574625 29.120656 12.797484 29.197266 13.021484 29.197266 C 13.231484 29.197266 13.443094 29.130094 13.621094 28.996094 C 18.134094 25.612094 25.008172 28.467141 25.076172 28.494141 C 25.433172 28.647141 25.844813 28.577313 26.132812 28.320312 C 26.421813 28.062313 26.536734 27.662016 26.427734 27.291016 C 22.682734 14.609016 12.558906 11.247375 12.128906 11.109375 C 12.023156 11.076125 11.914125 11.062172 11.806641 11.064453 z M 22.121094 13.363281 C 21.790625 13.372797 21.476875 13.5475 21.296875 13.84375 C 21.057875 14.23775 21.116406 14.743313 21.441406 15.070312 C 21.497406 15.123313 27.0465 20.743734 28.1875 26.927734 C 28.2375 27.198734 28.399813 27.436938 28.632812 27.585938 C 28.864812 27.735937 29.153922 27.781844 29.419922 27.714844 C 29.440922 27.708844 31.640469 27.174578 34.605469 28.142578 C 34.707469 28.175578 34.811016 28.191406 34.916016 28.191406 C 35.167016 28.191406 35.413562 28.097875 35.601562 27.921875 C 35.868563 27.671875 35.976766 27.295406 35.884766 26.941406 C 35.777766 26.529406 33.132172 16.794156 22.451172 13.410156 C 22.341672 13.374656 22.23125 13.360109 22.121094 13.363281 z M 14.582031 14.544922 C 17.411031 16.297922 21.521812 19.765187 23.882812 25.992188 C 21.728813 25.407187 18.155469 24.824406 14.855469 26.066406 C 15.663469 23.304406 16.437031 18.742922 14.582031 14.544922 z M 25.675781 17.019531 C 30.112781 19.644531 32.350312 23.551719 33.320312 25.761719 C 32.465313 25.610719 31.700641 25.560547 31.056641 25.560547 C 30.629641 25.560547 30.257266 25.582281 29.947266 25.613281 C 29.119266 22.265281 27.275781 19.206531 25.675781 17.019531 z M 36.888672 28.939453 L 11.826172 30.886719 C 11.470172 30.913719 11.155953 31.129172 11.001953 31.451172 C 10.847953 31.773172 10.877125 32.152266 11.078125 32.447266 L 12.648438 34.736328 C 12.416438 34.944328 12.225406 35.164562 12.066406 35.351562 C 11.648406 35.842562 11.483047 36 11.123047 36 C 10.570047 36 10.123047 36.447 10.123047 37 C 10.123047 37.553 10.570047 38 11.123047 38 C 12.436047 38 13.131844 37.187437 13.589844 36.648438 C 14.007844 36.158437 14.173203 36 14.533203 36 C 14.891203 36 15.055656 36.158437 15.472656 36.648438 C 15.932656 37.187437 16.6245 38 17.9375 38 C 19.2505 38 19.944344 37.187437 20.402344 36.648438 C 20.820344 36.158437 20.986656 36 21.347656 36 C 21.708656 36 21.874969 36.158437 22.292969 36.648438 C 22.750969 37.187437 23.442813 38 24.757812 38 C 26.072812 38 26.766609 37.187437 27.224609 36.648438 C 27.642609 36.158437 27.807969 36 28.167969 36 C 28.529969 36 28.696234 36.157438 29.115234 36.648438 C 29.575234 37.187438 30.268984 38 31.583984 38 C 31.664984 38 31.7365 37.988422 31.8125 37.982422 C 31.8435 37.985422 31.869391 38 31.900391 38 C 33.213391 38 33.907234 37.187437 34.365234 36.648438 C 34.783234 36.158437 34.949547 36 35.310547 36 C 35.669547 36 35.834953 36.158437 36.251953 36.648438 C 36.710953 37.187437 37.403797 38 38.716797 38 C 39.269797 38 39.716797 37.553 39.716797 37 C 39.716797 36.447 39.269797 36 38.716797 36 C 38.358797 36 38.192391 35.841563 37.775391 35.351562 C 37.315391 34.812563 36.623547 34 35.310547 34 C 35.231547 34 35.162891 34.012578 35.087891 34.017578 C 35.056891 34.015578 35.031 34 35 34 C 33.685 34 32.99125 34.812562 32.53125 35.351562 C 32.11225 35.842562 31.945984 36 31.583984 36 C 31.251984 36 31.075563 35.854125 30.726562 35.453125 C 33.442562 33.940125 37.389078 30.875562 37.580078 30.726562 C 37.929078 30.455562 38.058438 29.987172 37.898438 29.576172 C 37.738437 29.165172 37.320672 28.910453 36.888672 28.939453 z M 33.587891 31.201172 C 32.025891 32.318172 30.159125 33.572281 28.953125 34.113281 C 28.717125 34.045281 28.459969 34 28.167969 34 C 26.853969 34 26.159172 34.812563 25.701172 35.351562 C 25.283172 35.841563 25.117812 36 24.757812 36 C 24.397813 36 24.232453 35.841563 23.814453 35.351562 C 23.355453 34.812563 22.661656 34 21.347656 34 C 20.033656 34 19.340813 34.812563 18.882812 35.351562 C 18.464813 35.841563 18.2985 36 17.9375 36 C 17.5785 36 17.413094 35.841563 16.996094 35.351562 C 16.542094 34.818562 15.856313 34.019906 14.570312 34.003906 L 13.707031 32.746094 L 33.587891 31.201172 z"/></svg>